<svg width="57" height="56" viewBox="0 0 57 56" fill="none" xmlns="http://www.w3.org/2000/svg">
<path d="M56.3652 28C56.3652 43.464 43.8292 56 28.3652 56C12.9013 56 0.365234 43.464 0.365234 28C0.365234 12.536 12.9013 0 28.3652 0C43.8292 0 56.3652 12.536 56.3652 28Z" fill="url(#paint0_linear_1680_2365)"/>
<path d="M25.6919 34.0455V33.9006C25.708 32.3632 25.869 31.1397 26.1749 30.2301C26.4808 29.3205 26.9154 28.584 27.4789 28.0206C28.0423 27.4571 28.7185 26.938 29.5073 26.4631C29.9822 26.1733 30.4088 25.8312 30.7871 25.4368C31.1654 25.0343 31.4632 24.5715 31.6806 24.0483C31.906 23.5251 32.0186 22.9455 32.0186 22.3097C32.0186 21.5208 31.8335 20.8366 31.4632 20.2571C31.093 19.6776 30.598 19.2308 29.9782 18.9169C29.3584 18.603 28.6702 18.446 27.9135 18.446C27.2535 18.446 26.6176 18.5829 26.0059 18.8565C25.3941 19.1302 24.883 19.5608 24.4725 20.1484C24.062 20.736 23.8245 21.5047 23.7601 22.4545H20.7175C20.7819 21.0862 21.1361 19.915 21.78 18.9411C22.432 17.9671 23.2892 17.2225 24.3517 16.7074C25.4223 16.1922 26.6096 15.9347 27.9135 15.9347C29.3302 15.9347 30.5617 16.2164 31.6081 16.7798C32.6626 17.3433 33.4756 18.116 34.0471 19.098C34.6266 20.08 34.9164 21.1989 34.9164 22.4545C34.9164 23.34 34.7795 24.1409 34.5059 24.8572C34.2402 25.5736 33.8539 26.2135 33.3468 26.777C32.8477 27.3404 32.244 27.8395 31.5357 28.2741C30.8274 28.7169 30.2599 29.1837 29.8333 29.6747C29.4067 30.1577 29.0968 30.7332 28.9036 31.4013C28.7104 32.0694 28.6058 32.9025 28.5897 33.9006V34.0455H25.6919ZM27.2374 41.1932C26.6417 41.1932 26.1306 40.9799 25.704 40.5533C25.2774 40.1267 25.0641 39.6155 25.0641 39.0199C25.0641 38.4242 25.2774 37.9131 25.704 37.4865C26.1306 37.0599 26.6417 36.8466 27.2374 36.8466C27.833 36.8466 28.3442 37.0599 28.7708 37.4865C29.1974 37.9131 29.4107 38.4242 29.4107 39.0199C29.4107 39.4143 29.3101 39.7765 29.1088 40.1065C28.9157 40.4366 28.6541 40.7022 28.324 40.9034C28.0021 41.0966 27.6399 41.1932 27.2374 41.1932Z" fill="white"/>
<defs>
<linearGradient id="paint0_linear_1680_2365" x1="28.3652" y1="0" x2="28.3652" y2="56" gradientUnits="userSpaceOnUse">
<stop stop-color="#ADE3FA"/>
<stop offset="1" stop-color="#4886E8"/>
</linearGradient>
</defs>
</svg>
